<mxfile>
    <diagram id="MH7IjCSKnYvuyGCsRJ2q" name="Страница 1">
        <mxGraphModel dx="878" dy="677" grid="1" gridSize="10" guides="1" tooltips="1" connect="1" arrows="1" fold="1" page="1" pageScale="1" pageWidth="827" pageHeight="1169" math="0" shadow="0">
            <root>
                <mxCell id="0"/>
                <mxCell id="1" parent="0"/>
                <mxCell id="0B8XcpLmZeM8LR3Uv71j-1" value="&lt;b&gt;Client&lt;/b&gt;" style="html=1;" parent="1" vertex="1">
                    <mxGeometry x="273" y="110" width="110" height="50" as="geometry"/>
                </mxCell>
                <mxCell id="0B8XcpLmZeM8LR3Uv71j-2" value="Interface RamdomGeneratorInterface" style="swimlane;fontStyle=1;childLayout=stackLayout;horizontal=1;startSize=26;fillColor=none;horizontalStack=0;resizeParent=1;resizeParentMax=0;resizeLast=0;collapsible=1;marginBottom=0;" parent="1" vertex="1">
                    <mxGeometry x="210" y="200" width="236" height="78" as="geometry"/>
                </mxCell>
                <mxCell id="0B8XcpLmZeM8LR3Uv71j-3" value="+ getIntRandom(max: int): int&#10; " style="text;strokeColor=none;fillColor=none;align=left;verticalAlign=top;spacingLeft=4;spacingRight=4;overflow=hidden;rotatable=0;points=[[0,0.5],[1,0.5]];portConstraint=eastwest;" parent="0B8XcpLmZeM8LR3Uv71j-2" vertex="1">
                    <mxGeometry y="26" width="236" height="26" as="geometry"/>
                </mxCell>
                <mxCell id="0B8XcpLmZeM8LR3Uv71j-4" value="+ getBoolRandom(): bool" style="text;strokeColor=none;fillColor=none;align=left;verticalAlign=top;spacingLeft=4;spacingRight=4;overflow=hidden;rotatable=0;points=[[0,0.5],[1,0.5]];portConstraint=eastwest;" parent="0B8XcpLmZeM8LR3Uv71j-2" vertex="1">
                    <mxGeometry y="52" width="236" height="26" as="geometry"/>
                </mxCell>
                <mxCell id="0B8XcpLmZeM8LR3Uv71j-6" value="RandomGen" style="swimlane;fontStyle=1;childLayout=stackLayout;horizontal=1;startSize=26;fillColor=none;horizontalStack=0;resizeParent=1;resizeParentMax=0;resizeLast=0;collapsible=1;marginBottom=0;" parent="1" vertex="1">
                    <mxGeometry x="80" y="387" width="190" height="78" as="geometry"/>
                </mxCell>
                <mxCell id="0B8XcpLmZeM8LR3Uv71j-7" value="+ getIntRandom(max: int): int&#10; " style="text;strokeColor=none;fillColor=none;align=left;verticalAlign=top;spacingLeft=4;spacingRight=4;overflow=hidden;rotatable=0;points=[[0,0.5],[1,0.5]];portConstraint=eastwest;" parent="0B8XcpLmZeM8LR3Uv71j-6" vertex="1">
                    <mxGeometry y="26" width="190" height="26" as="geometry"/>
                </mxCell>
                <mxCell id="0B8XcpLmZeM8LR3Uv71j-8" value="+ getBoolRandom(): bool" style="text;strokeColor=none;fillColor=none;align=left;verticalAlign=top;spacingLeft=4;spacingRight=4;overflow=hidden;rotatable=0;points=[[0,0.5],[1,0.5]];portConstraint=eastwest;" parent="0B8XcpLmZeM8LR3Uv71j-6" vertex="1">
                    <mxGeometry y="52" width="190" height="26" as="geometry"/>
                </mxCell>
                <mxCell id="0B8XcpLmZeM8LR3Uv71j-10" value="LogAndCheck" style="swimlane;fontStyle=1;align=center;verticalAlign=top;childLayout=stackLayout;horizontal=1;startSize=26;horizontalStack=0;resizeParent=1;resizeParentMax=0;resizeLast=0;collapsible=1;marginBottom=0;" parent="1" vertex="1">
                    <mxGeometry x="360" y="387" width="360" height="120" as="geometry"/>
                </mxCell>
                <mxCell id="0B8XcpLmZeM8LR3Uv71j-11" value="- rndGenerator: RamdomGeneratorInterface" style="text;strokeColor=none;fillColor=none;align=left;verticalAlign=top;spacingLeft=4;spacingRight=4;overflow=hidden;rotatable=0;points=[[0,0.5],[1,0.5]];portConstraint=eastwest;" parent="0B8XcpLmZeM8LR3Uv71j-10" vertex="1">
                    <mxGeometry y="26" width="360" height="26" as="geometry"/>
                </mxCell>
                <mxCell id="0B8XcpLmZeM8LR3Uv71j-12" value="" style="line;strokeWidth=1;fillColor=none;align=left;verticalAlign=middle;spacingTop=-1;spacingLeft=3;spacingRight=3;rotatable=0;labelPosition=right;points=[];portConstraint=eastwest;" parent="0B8XcpLmZeM8LR3Uv71j-10" vertex="1">
                    <mxGeometry y="52" width="360" height="8" as="geometry"/>
                </mxCell>
                <mxCell id="0B8XcpLmZeM8LR3Uv71j-13" value="+LogAndCheck(randomGenerator: RamdomGeneratorInterface)&#10;+getIntRandom(max: int): int&#10;+getBoolRandom(): bool&#10;    " style="text;strokeColor=none;fillColor=none;align=left;verticalAlign=top;spacingLeft=4;spacingRight=4;overflow=hidden;rotatable=0;points=[[0,0.5],[1,0.5]];portConstraint=eastwest;" parent="0B8XcpLmZeM8LR3Uv71j-10" vertex="1">
                    <mxGeometry y="60" width="360" height="60" as="geometry"/>
                </mxCell>
                <mxCell id="0B8XcpLmZeM8LR3Uv71j-14" value="" style="endArrow=open;endFill=1;endSize=12;html=1;exitX=0.5;exitY=1;exitDx=0;exitDy=0;" parent="1" source="0B8XcpLmZeM8LR3Uv71j-1" target="0B8XcpLmZeM8LR3Uv71j-2" edge="1">
                    <mxGeometry width="160" relative="1" as="geometry">
                        <mxPoint x="244" y="330" as="sourcePoint"/>
                        <mxPoint x="404" y="330" as="targetPoint"/>
                    </mxGeometry>
                </mxCell>
                <mxCell id="0B8XcpLmZeM8LR3Uv71j-15" value="" style="endArrow=block;dashed=1;endFill=0;endSize=12;html=1;entryX=0.5;entryY=1.115;entryDx=0;entryDy=0;entryPerimeter=0;" parent="1" edge="1">
                    <mxGeometry width="160" relative="1" as="geometry">
                        <mxPoint x="328" y="327" as="sourcePoint"/>
                        <mxPoint x="328" y="277.99" as="targetPoint"/>
                    </mxGeometry>
                </mxCell>
                <mxCell id="0B8XcpLmZeM8LR3Uv71j-18" value="" style="endArrow=none;html=1;edgeStyle=orthogonalEdgeStyle;dashed=1;" parent="1" edge="1">
                    <mxGeometry relative="1" as="geometry">
                        <mxPoint x="176" y="327" as="sourcePoint"/>
                        <mxPoint x="516" y="327" as="targetPoint"/>
                    </mxGeometry>
                </mxCell>
                <mxCell id="0B8XcpLmZeM8LR3Uv71j-21" value="" style="endArrow=none;html=1;edgeStyle=orthogonalEdgeStyle;dashed=1;" parent="1" target="0B8XcpLmZeM8LR3Uv71j-6" edge="1">
                    <mxGeometry relative="1" as="geometry">
                        <mxPoint x="175" y="327" as="sourcePoint"/>
                        <mxPoint x="450" y="347" as="targetPoint"/>
                        <Array as="points">
                            <mxPoint x="175" y="347"/>
                            <mxPoint x="175" y="347"/>
                        </Array>
                    </mxGeometry>
                </mxCell>
                <mxCell id="0B8XcpLmZeM8LR3Uv71j-24" value="" style="endArrow=none;html=1;edgeStyle=orthogonalEdgeStyle;dashed=1;" parent="1" edge="1">
                    <mxGeometry relative="1" as="geometry">
                        <mxPoint x="516" y="327" as="sourcePoint"/>
                        <mxPoint x="516" y="387" as="targetPoint"/>
                        <Array as="points">
                            <mxPoint x="516" y="347"/>
                            <mxPoint x="516" y="347"/>
                        </Array>
                    </mxGeometry>
                </mxCell>
                <mxCell id="0B8XcpLmZeM8LR3Uv71j-25" value="" style="endArrow=none;html=1;endSize=12;startArrow=diamondThin;startSize=14;startFill=0;edgeStyle=orthogonalEdgeStyle;align=left;verticalAlign=bottom;dashed=1;rounded=0;endFill=0;entryX=1;entryY=0.5;entryDx=0;entryDy=0;" parent="1" edge="1" target="0B8XcpLmZeM8LR3Uv71j-7" source="0B8XcpLmZeM8LR3Uv71j-11">
                    <mxGeometry x="-0.5122" y="50" relative="1" as="geometry">
                        <mxPoint x="340" y="450" as="sourcePoint"/>
                        <mxPoint x="170" y="500" as="targetPoint"/>
                        <Array as="points">
                            <mxPoint x="360" y="426"/>
                            <mxPoint x="360" y="426"/>
                        </Array>
                        <mxPoint as="offset"/>
                    </mxGeometry>
                </mxCell>
            </root>
        </mxGraphModel>
    </diagram>
</mxfile>